<svg width="370" height="371" viewBox="0 0 370 371" fill="none" xmlns="http://www.w3.org/2000/svg">
<ellipse cx="343.024" cy="272.484" rx="24.5451" ry="24.5377" fill="url(#paint0_linear_1010_1467)"/>
<g filter="url(#filter0_b_1010_1467)">
<path d="M329.475 185.51C329.475 265.346 264.733 330.087 184.843 330.087C104.954 330.087 40.2109 265.346 40.2109 185.51C40.2109 105.675 104.954 40.9341 184.843 40.9341C264.733 40.9341 329.475 105.675 329.475 185.51Z" stroke="url(#paint1_radial_1010_1467)" stroke-width="80"/>
</g>
<ellipse cx="60.4138" cy="137.867" rx="34.4314" ry="34.421" fill="url(#paint2_linear_1010_1467)"/>
<g filter="url(#filter1_b_1010_1467)">
<path d="M304.343 184.763C304.343 250.728 250.85 304.218 184.843 304.218C118.837 304.218 65.3438 250.728 65.3438 184.763C65.3438 118.799 118.837 65.3086 184.843 65.3086C250.85 65.3086 304.343 118.799 304.343 184.763Z" stroke="url(#paint3_radial_1010_1467)" stroke-opacity="0.49" stroke-width="60"/>
</g>
<path d="M264.444 184.762C264.444 228.693 228.817 264.326 184.844 264.326C140.871 264.326 105.244 228.693 105.244 184.762C105.244 140.832 140.871 105.199 184.844 105.199C228.817 105.199 264.444 140.832 264.444 184.762Z" stroke="url(#paint4_radial_1010_1467)" stroke-width="80"/>
<ellipse cx="283.705" cy="30.5144" rx="8.86352" ry="8.86084" fill="url(#paint5_linear_1010_1467)"/>
<defs>
<filter id="filter0_b_1010_1467" x="-9.78906" y="-9.06592" width="389.264" height="389.153" filterUnits="userSpaceOnUse" color-interpolation-filters="sRGB">
<feFlood flood-opacity="0" result="BackgroundImageFix"/>
<feGaussianBlur in="BackgroundImageFix" stdDeviation="5"/>
<feComposite in2="SourceAlpha" operator="in" result="effect1_backgroundBlur_1010_1467"/>
<feBlend mode="normal" in="SourceGraphic" in2="effect1_backgroundBlur_1010_1467" result="shape"/>
</filter>
<filter id="filter1_b_1010_1467" x="25.3438" y="25.3086" width="319" height="318.909" filterUnits="userSpaceOnUse" color-interpolation-filters="sRGB">
<feFlood flood-opacity="0" result="BackgroundImageFix"/>
<feGaussianBlur in="BackgroundImageFix" stdDeviation="5"/>
<feComposite in2="SourceAlpha" operator="in" result="effect1_backgroundBlur_1010_1467"/>
<feBlend mode="normal" in="SourceGraphic" in2="effect1_backgroundBlur_1010_1467" result="shape"/>
</filter>
<linearGradient id="paint0_linear_1010_1467" x1="367.569" y1="297.021" x2="318.493" y2="247.931" gradientUnits="userSpaceOnUse">
<stop stop-color="#42A7C3"/>
<stop offset="0.750282" stop-color="#8ADBF0"/>
</linearGradient>
<radialGradient id="paint1_radial_1010_1467" cx="0" cy="0" r="1" gradientUnits="userSpaceOnUse" gradientTransform="translate(179.65 193.586) rotate(88.7893) scale(245.772 245.846)">
<stop offset="0.654764" stop-color="#E2F6FC" stop-opacity="0.36"/>
<stop offset="1" stop-color="#48B7D6" stop-opacity="0.84"/>
</radialGradient>
<linearGradient id="paint2_linear_1010_1467" x1="94.8452" y1="172.288" x2="26.0032" y2="103.425" gradientUnits="userSpaceOnUse">
<stop stop-color="#42A7C3"/>
<stop offset="0.750282" stop-color="#8ADBF0"/>
</linearGradient>
<radialGradient id="paint3_radial_1010_1467" cx="0" cy="0" r="1" gradientUnits="userSpaceOnUse" gradientTransform="translate(180.639 191.302) rotate(88.7893) scale(199.006 199.066)">
<stop offset="0.654764" stop-color="#E2F6FC" stop-opacity="0.36"/>
<stop offset="1" stop-color="#48B7D6" stop-opacity="0.84"/>
</radialGradient>
<radialGradient id="paint4_radial_1010_1467" cx="0" cy="0" r="1" gradientUnits="userSpaceOnUse" gradientTransform="translate(181.48 189.993) rotate(88.7893) scale(159.205 159.253)">
<stop offset="0.654764" stop-color="#E2F6FC" stop-opacity="0.36"/>
<stop offset="1" stop-color="#48B7D6" stop-opacity="0.84"/>
</radialGradient>
<linearGradient id="paint5_linear_1010_1467" x1="292.569" y1="39.3753" x2="274.847" y2="21.6482" gradientUnits="userSpaceOnUse">
<stop stop-color="#42A7C3"/>
<stop offset="0.750282" stop-color="#8ADBF0"/>
</linearGradient>
</defs>
</svg>
