<svg width="465" height="353" viewBox="0 0 465 353" fill="none" xmlns="http://www.w3.org/2000/svg">
<g opacity="0.25">
<mask id="mask0_1010_1790" style="mask-type:alpha" maskUnits="userSpaceOnUse" x="0" y="0" width="465" height="353">
<rect x="463.832" y="0.5" width="351.479" height="463.166" transform="rotate(90 463.832 0.5)" fill="url(#paint0_linear_1010_1790)" stroke="#6246E5"/>
</mask>
<g mask="url(#mask0_1010_1790)">
<path d="M125.872 451.004C58.8399 451.004 4.49024 396.058 4.49024 328.266C4.49025 260.474 58.84 205.527 125.872 205.527C192.904 205.527 247.254 260.474 247.254 328.266C247.254 396.058 192.904 451.004 125.872 451.004Z" stroke="#E5E5E5"/>
<path d="M138.702 455.868C63.6989 455.868 2.8872 394.388 2.8872 318.536C2.8872 242.684 63.6989 181.203 138.702 181.203C213.706 181.203 274.518 242.684 274.518 318.536C274.518 394.388 213.706 455.868 138.702 455.868Z" stroke="#E5E5E5"/>
<path d="M149.127 460.734C67.0375 460.734 0.481771 393.446 0.481774 310.429C0.481778 227.413 67.0376 160.125 149.127 160.125C231.216 160.125 297.771 227.413 297.771 310.43C297.771 393.446 231.216 460.734 149.127 460.734Z" stroke="#E5E5E5"/>
<path d="M164.362 463.977C76.0726 463.977 4.49077 391.606 4.49078 302.321C4.49078 213.036 76.0726 140.665 164.362 140.665C252.651 140.665 324.232 213.036 324.232 302.321C324.232 391.606 252.651 463.977 164.362 463.977Z" stroke="#E5E5E5"/>
<path d="M179.197 467.22C84.9292 467.22 8.5009 389.949 8.50091 294.619C8.50091 199.288 84.9292 122.017 179.197 122.017C273.464 122.017 349.893 199.288 349.893 294.619C349.893 389.949 273.464 467.22 179.197 467.22Z" stroke="#E5E5E5"/>
<path d="M196.036 471.275C92.4682 471.275 8.50078 386.381 8.50079 281.647C8.50079 176.913 92.4682 92.019 196.036 92.019C299.603 92.019 383.57 176.913 383.57 281.647C383.57 386.381 299.603 471.275 196.036 471.275Z" stroke="#E5E5E5"/>
</g>
</g>
<defs>
<linearGradient id="paint0_linear_1010_1790" x1="714.324" y1="13.0227" x2="475.497" y2="470.002" gradientUnits="userSpaceOnUse">
<stop stop-color="#747DEF"/>
<stop offset="1" stop-color="#5E3BE1"/>
</linearGradient>
</defs>
</svg>
