<svg width="141" height="271" viewBox="0 0 141 271" fill="none" xmlns="http://www.w3.org/2000/svg">
<g clip-path="url(#clip0_1010_1741)">
<path d="M140.059 17.9575L139.752 20.8463L103.293 255.166C101.851 264.44 94.9651 270.802 87.4396 270.421H87.1401H86.8442H86.5447H86.2452H85.9493H85.8125C91.2412 270.081 96.167 266.26 98.7112 260.467C98.8628 260.119 99.0071 259.768 99.1402 259.405C99.2326 259.165 99.3177 258.921 99.3991 258.666C99.7749 257.524 100.056 256.354 100.239 255.166L137.1 18.2793C137.126 18.1276 137.149 17.976 137.163 17.828C137.258 17.1545 137.318 16.4768 137.345 15.7973C137.692 7.02711 132.363 0.380122 124.69 0.261757H124.235H123.78H123.325C123.177 0.261757 123.022 0.261757 122.87 0.261757H122.416H122.116H121.802L121.399 0.213674H121.376L120.988 0.184082C121.121 0.184082 121.247 0.184082 121.38 0.184082H121.835C121.987 0.184082 122.138 0.184082 122.29 0.184082H122.734H123.188C123.34 0.184082 123.488 0.184082 123.643 0.184082H124.098H124.553H125.008H125.463H125.918C126.069 0.184082 126.217 0.184082 126.369 0.184082H126.48C135.166 1.40103 141.054 8.58436 140.059 17.9575Z" fill="url(#paint0_linear_1010_1741)"/>
<path d="M137.099 18.2459L100.249 255.126C98.8988 263.803 92.7749 269.94 85.8263 270.373H85.6636H85.364H85.0645C84.9683 270.373 84.8648 270.373 84.7686 270.373H84.4691H84.1696H83.87H83.5705H83.2746H82.9825C82.1832 270.352 81.3885 270.245 80.6121 270.055L26.0476 256.465L25.9441 256.439L10.601 252.884C3.50813 251.249 -0.99976 242.483 0.42768 233.28L32.9703 24.1161L33.6471 19.4813C34.4237 14.1586 36.9346 9.36106 40.2333 6.21696C40.4995 5.96174 40.7732 5.71761 41.0505 5.47718C41.2354 5.32182 41.4203 5.17017 41.6126 5.02591C41.8049 4.88165 41.9824 4.74479 42.1858 4.60792C42.8413 4.14906 43.5355 3.74807 44.2604 3.40947C44.4638 3.317 44.6709 3.22823 44.8743 3.15055C45.9771 2.70707 47.148 2.45682 48.3356 2.41076L119.43 0.0693359L121.786 0.143314H121.938C122.093 0.143314 122.244 0.143314 122.392 0.143314C122.54 0.143314 122.699 0.143314 122.847 0.143314C122.995 0.143314 123.154 0.143314 123.302 0.143314H123.757C123.909 0.143314 124.06 0.143314 124.212 0.143314H124.667C133.058 0.350454 138.642 8.28097 137.099 18.2459Z" fill="url(#paint1_linear_1010_1741)"/>
<path d="M125.266 3.94566C125.061 3.79925 124.849 3.66344 124.63 3.53877C124.834 3.64974 125.048 3.7866 125.266 3.94566ZM124.157 3.28355C124.309 3.35753 124.453 3.43521 124.601 3.52028C124.53 3.48699 124.464 3.4463 124.397 3.41301L124.157 3.28355ZM122.219 2.56965C122.64 2.6725 123.052 2.80475 123.454 2.96544L123.721 3.08011C123.165 2.83538 122.587 2.64702 121.994 2.51787L122.219 2.56965ZM121.787 2.47348L121.661 2.45129L121.439 2.4143C121.628 2.44019 121.809 2.48088 121.994 2.51787H121.96L121.787 2.47348ZM123.931 3.17628H123.898L123.721 3.0949C123.865 3.16148 124.013 3.22437 124.153 3.29465L123.931 3.17628ZM120.973 2.34771H120.725L121.173 2.3958L121.439 2.43279C121.306 2.4069 121.173 2.38841 121.04 2.37361L120.973 2.34771ZM10.8272 250.48L10.9344 250.524H10.9159L10.8272 250.48ZM10.7199 250.432H10.7384L10.6349 250.387L10.7199 250.432ZM10.5831 250.369L10.6349 250.391L10.5239 250.339L10.5831 250.369ZM8.64905 249.133C8.61535 249.108 8.58324 249.081 8.5529 249.052L8.64905 249.133ZM7.94642 248.497L8.07215 248.619L7.93903 248.486L7.94642 248.497ZM4.84747 243.54L4.93253 243.766L4.988 243.907L4.89925 243.67C4.88076 243.637 4.86596 243.585 4.84747 243.54ZM3.81203 239.35V239.427C3.81203 239.35 3.78983 239.265 3.78244 239.183C3.79723 239.239 3.80833 239.298 3.81203 239.35ZM3.72327 238.547C3.72327 238.547 3.72327 238.573 3.72327 238.584C3.72149 238.567 3.72149 238.549 3.72327 238.532V238.547ZM3.70108 238.251C3.69927 238.261 3.69927 238.271 3.70108 238.281C3.70108 238.184 3.70108 238.081 3.67889 237.981C3.68629 238.088 3.69368 238.159 3.70108 238.251ZM121.787 0.187538C121.517 0.150548 121.247 0.128358 120.973 0.109863C120.869 0.109863 120.759 0.109863 120.648 0.109863C120.537 0.109863 120.363 0.109863 120.222 0.109863C120.082 0.109863 120.052 0.109863 119.963 0.109863H119.446L48.3474 2.46608C47.1595 2.51044 45.9883 2.76075 44.886 3.20587C44.6826 3.28725 44.4756 3.37232 44.2722 3.4685C43.545 3.80504 42.8494 4.20612 42.1939 4.66695C42.0016 4.79641 41.8241 4.94067 41.6244 5.08493C41.4247 5.22919 41.2546 5.37714 41.0623 5.5325C40.7849 5.76553 40.5113 6.00966 40.245 6.27228C36.9464 9.41638 34.4354 14.2139 33.6588 19.533L32.9821 24.1788L2.45855 233.361C1.11247 242.564 5.25795 251.319 11.8035 252.939L25.9447 256.439L26.0483 256.465L80.5905 269.969C81.4611 270.188 82.3555 270.297 83.2531 270.295C89.9613 270.276 96.015 264.007 97.3278 254.989L131.89 18.0756C133.258 8.68029 128.78 1.10487 121.787 0.187538ZM131.708 15.4345V15.8636C131.708 16.0116 131.708 16.1558 131.682 16.3001C131.657 16.4444 131.66 16.596 131.649 16.7403C131.623 17.0103 131.597 17.2803 131.56 17.5577C131.541 17.7304 131.519 17.9042 131.494 18.0793L131.242 19.7919L97.2205 253.195C96.9551 255.035 96.4581 256.835 95.7413 258.551C95.6896 258.677 95.6378 258.802 95.5823 258.921C95.5268 259.039 95.4714 259.172 95.4122 259.291C95.3531 259.409 95.3271 259.475 95.2828 259.564C95.1496 259.834 95.0128 260.101 94.8686 260.36C94.8094 260.478 94.7429 260.593 94.68 260.704C94.6171 260.814 94.4951 261.018 94.399 261.173C94.3028 261.329 94.2732 261.38 94.2067 261.48C94.1401 261.58 94.0698 261.695 93.9959 261.802C93.8036 262.094 93.5965 262.383 93.382 262.664C93.3154 262.749 93.2489 262.838 93.1786 262.923C93.1083 263.008 93.0233 263.119 92.9419 263.211C92.8606 263.304 92.7866 263.4 92.7053 263.493C92.6239 263.585 92.5462 263.677 92.4612 263.766C92.3761 263.855 92.2985 263.948 92.2097 264.036C92.047 264.214 91.8732 264.384 91.6994 264.547C91.4331 264.802 91.1632 265.046 90.8821 265.287L90.6307 265.49C90.4384 265.638 90.2609 265.782 90.0464 265.923L89.7875 266.1C89.5028 266.293 89.2106 266.47 88.9148 266.633C88.8186 266.692 88.7188 266.744 88.6189 266.796C88.4193 266.899 88.2159 266.995 88.0162 267.088L87.7166 267.221C87.3912 267.358 87.062 267.48 86.7292 267.591C86.6434 267.623 86.5557 267.65 86.4667 267.672C86.3631 267.706 86.2596 267.735 86.1523 267.761L85.8343 267.839C85.5976 267.891 85.361 267.939 85.1206 267.976L84.8691 268.013C84.5548 268.057 84.2405 268.083 83.9187 268.098H83.5859H83.2161C82.9979 268.098 82.7834 268.098 82.5616 268.061H82.4358H82.3767H82.3471H82.5135H82.5616C82.6614 268.061 82.7613 268.061 82.8611 268.061C82.8929 268.066 82.9254 268.066 82.9573 268.061H83.6969C83.7362 268.064 83.7758 268.064 83.8152 268.061H83.9335H84.026H84.1961C84.2959 268.061 84.3884 268.061 84.4845 268.027L84.7101 267.994L84.858 267.968H84.9468L85.0318 267.95H85.0836C85.1276 267.944 85.1709 267.934 85.2131 267.92H85.2648H85.3018C85.5496 267.865 85.7936 267.802 86.0414 267.728C86.067 267.724 86.0919 267.716 86.1154 267.706H86.1597C86.2152 267.706 86.267 267.672 86.3188 267.65H86.3779L86.6405 267.558L87.1323 267.358H87.1619C87.332 267.28 87.4984 267.206 87.6648 267.121C87.8313 267.036 87.9866 266.955 88.1419 266.87C88.1528 266.872 88.1643 266.872 88.1752 266.87C88.434 266.722 88.6892 266.566 88.9444 266.396C88.9787 266.377 89.0109 266.355 89.0405 266.33C89.0554 266.323 89.0691 266.314 89.0812 266.304L89.1367 266.267L89.1921 266.222C89.3105 266.141 89.4251 266.056 89.5397 265.971C89.6544 265.886 89.7727 265.79 89.8837 265.697C90.4576 265.226 90.993 264.711 91.4849 264.155L91.5884 264.033L91.692 263.91C91.9694 263.585 92.2319 263.245 92.4834 262.89C92.6535 262.653 92.8125 262.409 92.9715 262.15C93.0307 262.061 93.0862 261.965 93.1453 261.872L93.2045 261.773L93.4079 261.403L93.4855 261.266C93.5114 261.214 93.541 261.166 93.5706 261.11C93.6002 261.055 93.6224 261.014 93.6445 260.97C93.6933 260.886 93.7378 260.799 93.7777 260.711C93.7915 260.686 93.8039 260.66 93.8147 260.633L93.9034 260.448C93.9552 260.352 94.007 260.249 94.0513 260.145C94.052 260.133 94.052 260.12 94.0513 260.108C94.0994 260.004 94.1438 259.905 94.1882 259.797L94.3324 259.464C94.3768 259.353 94.4248 259.239 94.4692 259.124C94.5136 259.009 94.5543 258.898 94.5986 258.784C94.643 258.669 94.6393 258.669 94.6615 258.61C94.6837 258.551 94.7022 258.495 94.7244 258.432L94.802 258.207C94.8279 258.122 94.8575 258.033 94.8871 257.944C94.9167 257.855 94.95 257.748 94.9759 257.645C94.9785 257.63 94.9785 257.615 94.9759 257.6C95.0202 257.452 95.0646 257.301 95.1053 257.149C95.146 256.997 95.2051 256.757 95.2532 256.561C95.2976 256.365 95.3419 256.169 95.3826 255.969C95.4233 255.769 95.4492 255.643 95.4788 255.477C95.4788 255.433 95.4788 255.384 95.5047 255.336C95.5379 255.14 95.5749 254.937 95.6008 254.737L130.096 18.2383C130.159 17.7908 130.214 17.3395 130.248 16.8993C130.342 15.8151 130.342 14.7248 130.248 13.6406C130.251 13.6285 130.251 13.6156 130.248 13.6036C130.248 13.4852 130.222 13.3668 130.207 13.2337C130.192 13.1005 130.207 13.0783 130.181 13.0006C130.151 12.7898 130.122 12.5827 130.089 12.3792L129.978 11.7837C129.955 11.6838 129.933 11.584 129.915 11.4878C129.896 11.3916 129.867 11.288 129.845 11.1919C129.847 11.1648 129.847 11.1376 129.845 11.1105C129.845 11.0402 129.808 10.9736 129.789 10.9034C129.771 10.8513 129.756 10.7982 129.745 10.7443C129.745 10.7073 129.745 10.6703 129.711 10.6333L129.626 10.3485C129.541 10.0674 129.445 9.79367 129.345 9.52365C129.312 9.43858 129.279 9.3535 129.249 9.26842L129.197 9.14636C129.179 9.09457 129.157 9.04279 129.135 8.9947C129.098 8.90963 129.064 8.82455 129.024 8.73948C128.95 8.57303 128.872 8.40657 128.791 8.24382C128.75 8.15874 128.706 8.07367 128.661 7.98859C128.617 7.90351 128.572 7.82584 128.528 7.74816C128.507 7.70384 128.483 7.66063 128.458 7.6187C128.413 7.53732 128.365 7.45964 128.317 7.37827L128.217 7.21182L128.121 7.06756L128.084 7.00837C128.044 6.94549 128.003 6.88261 127.959 6.81973C127.95 6.8041 127.94 6.78925 127.929 6.77534C127.855 6.66807 127.777 6.55711 127.696 6.44984L127.607 6.32777L127.548 6.25009C127.519 6.21026 127.488 6.17199 127.456 6.13543L127.319 5.96158L127.212 5.83581L127.034 5.63237L126.934 5.5251C126.897 5.48072 126.857 5.43633 126.816 5.39564L126.672 5.24768L126.535 5.11082L126.483 5.06274L126.335 4.92587L126.169 4.77052L126.098 4.71134L125.939 4.57447L125.902 4.54858C125.836 4.4931 125.766 4.43391 125.695 4.38213C125.566 4.28226 125.44 4.18978 125.307 4.09361H125.281C125.076 3.9472 124.864 3.8114 124.645 3.68673C124.575 3.65344 124.508 3.61275 124.442 3.57946L124.201 3.45L123.979 3.34643H123.946L123.769 3.26505C123.213 3.02033 122.635 2.83197 122.042 2.70281H122.008L121.835 2.66582L121.709 2.64363L121.487 2.60664C121.354 2.58075 121.221 2.56226 121.088 2.54746H121.021H120.773H120.622H120.341C120.126 2.54746 119.912 2.54746 119.69 2.54746L48.0996 4.74093C47.911 4.74093 47.7298 4.74093 47.5375 4.78161L47.2676 4.81121C41.5911 5.55099 36.2955 12.0389 35.1713 19.7512L3.8675 233.683C3.67383 234.994 3.60573 236.32 3.66411 237.644C3.66411 237.644 3.66411 237.667 3.66411 237.674C3.66411 237.778 3.66411 237.881 3.66411 237.981C3.66411 238.081 3.66411 238.159 3.66411 238.251C3.6623 238.261 3.6623 238.271 3.66411 238.281C3.66411 238.366 3.6641 238.447 3.68259 238.532C3.68259 238.532 3.68259 238.558 3.68259 238.569C3.68077 238.588 3.68077 238.606 3.68259 238.625C3.68259 238.687 3.68259 238.747 3.70108 238.81C3.7027 238.828 3.7027 238.847 3.70108 238.865C3.70108 238.865 3.70108 238.865 3.70108 238.887C3.70108 238.98 3.71957 239.076 3.73436 239.168C3.74915 239.261 3.73437 239.283 3.75286 239.335V239.412C3.75286 239.505 3.77875 239.594 3.78984 239.682C3.78984 239.775 3.81573 239.864 3.83422 239.952C3.85271 240.041 3.87858 240.241 3.90817 240.382C3.90817 240.437 3.92667 240.489 3.93776 240.541V240.618C3.93776 240.685 3.96364 240.755 3.97843 240.822C3.98243 240.849 3.98862 240.877 3.99693 240.903C4.01542 240.999 4.0376 241.095 4.05979 241.192C4.08198 241.288 4.08568 241.299 4.09677 241.354C4.10787 241.41 4.14485 241.539 4.16704 241.628L4.20032 241.75C4.20032 241.802 4.22621 241.854 4.2373 241.902C4.24839 241.95 4.2373 241.935 4.2373 241.954L4.25949 242.028C4.25949 242.087 4.29277 242.142 4.30756 242.198L4.37783 242.434C4.47397 242.753 4.58121 243.071 4.69585 243.374C4.69585 243.422 4.72914 243.466 4.74393 243.507L4.82899 243.733L4.88445 243.873C5.34714 245.034 5.95608 246.13 6.69649 247.136C6.74456 247.202 6.79633 247.265 6.84441 247.328C7.05519 247.598 7.26968 247.857 7.49526 248.101L7.52854 248.138L7.56923 248.179L7.65058 248.268L7.80219 248.423L7.83549 248.453L7.96122 248.575C8.07955 248.686 8.19419 248.793 8.33102 248.9L8.37169 248.937C8.40498 248.959 8.43086 248.985 8.46414 249.011L8.5529 249.089L8.68233 249.192C8.80066 249.289 8.9227 249.385 9.05213 249.474L9.12239 249.522C9.22347 249.596 9.32702 249.666 9.43303 249.732L9.50699 249.784L9.82133 249.973L9.90268 250.017L9.94706 250.043C10.1024 250.132 10.2614 250.213 10.4241 250.291L10.4833 250.321L10.535 250.343L10.6201 250.383H10.6386C10.6941 250.413 10.7532 250.435 10.8161 250.461L10.7273 250.428L10.6238 250.391C10.4426 250.313 10.254 250.236 10.0987 250.147C9.02544 249.596 8.05277 248.868 7.22161 247.994L7.03671 247.802C6.88509 247.635 6.73346 247.465 6.58924 247.287L6.39324 247.043C6.05672 246.622 5.74673 246.179 5.46505 245.719C5.40897 245.637 5.35712 245.552 5.30973 245.464C5.15441 245.209 5.00649 244.95 4.86597 244.683L4.73283 244.417L4.58121 244.106L4.437 243.796L4.34084 243.585L4.22621 243.319C4.00432 242.782 3.80463 242.227 3.62713 241.661C3.59384 241.562 3.56426 241.458 3.53468 241.354C3.43853 241.04 3.35347 240.718 3.27581 240.389C3.24622 240.274 3.21664 240.156 3.19445 240.019C2.99199 239.124 2.84869 238.218 2.76548 237.304C2.76548 237.178 2.74329 237.053 2.7322 236.934C2.68412 236.294 2.66194 235.651 2.66934 235C2.66934 234.87 2.66934 234.737 2.66934 234.608C2.69403 233.678 2.77305 232.75 2.90601 231.83L33.6588 20.9903L33.8844 19.4479C33.9066 19.2876 33.9325 19.1285 33.9621 18.9707C33.9621 18.8524 33.999 18.734 34.0212 18.6008C34.0693 18.3382 34.1211 18.083 34.1765 17.8278C34.2061 17.6946 34.2357 17.5577 34.269 17.4283C34.269 17.358 34.3023 17.2877 34.3171 17.2174C34.3319 17.1472 34.3541 17.051 34.3799 16.9659C34.4058 16.8808 34.4502 16.6996 34.4872 16.5627C34.5488 16.3309 34.6154 16.1016 34.6869 15.8747C34.7202 15.7601 34.7571 15.6491 34.7941 15.5381C34.9014 15.1978 35.016 14.8686 35.1417 14.5394C35.1787 14.4358 35.2231 14.3323 35.2601 14.2287L35.4117 13.8588L35.5448 13.5444C35.5781 13.4556 35.6151 13.3742 35.6521 13.2892L35.7889 12.9859L35.8961 12.7565C35.9516 12.6456 35.9997 12.5346 36.0588 12.4199C36.1513 12.2313 36.2511 12.05 36.351 11.8429L36.51 11.5507C36.5692 11.4397 36.632 11.3287 36.6949 11.2178C37.1257 10.4559 37.6024 9.7209 38.1223 9.0169C38.1963 8.91703 38.2666 8.82085 38.3442 8.72468L38.5994 8.39548C38.7436 8.22163 38.8841 8.04778 39.0284 7.87763L39.5054 7.34498C39.6681 7.17113 39.8308 7.00098 39.9972 6.83452L40.2487 6.5867C40.4151 6.43134 40.5852 6.27229 40.759 6.11693C40.9328 5.96157 41.103 5.82101 41.2805 5.67676C41.458 5.5325 41.6503 5.39564 41.813 5.26248L42.0866 5.06643C42.1754 4.99985 42.2678 4.94067 42.3566 4.87779L42.6339 4.69654L42.915 4.51899C43.0962 4.40802 43.2848 4.30075 43.4771 4.19718L43.747 4.05292C43.7554 4.0501 43.7645 4.0501 43.7729 4.05292L44.0466 3.91237C44.139 3.87538 44.2278 3.83099 44.3165 3.78661L44.6272 3.65714L44.9156 3.54247L45.2115 3.4352C45.3113 3.39821 45.4075 3.36493 45.5073 3.33534C45.707 3.26875 45.903 3.20957 46.1027 3.16148L46.3948 3.0912C46.6093 3.04435 46.8238 3.00366 47.0383 2.96914C47.2084 2.94325 47.3785 2.92475 47.5486 2.90255L47.8592 2.87667H48.1699L119.878 0.616616H120.537C120.762 0.616616 120.984 0.616616 121.206 0.657304C121.321 0.657304 121.432 0.6795 121.539 0.694296C121.646 0.709091 121.764 0.720186 121.875 0.738681L122.201 0.794163L122.526 0.860747L122.844 0.938421L123.133 1.0124L123.196 1.03089C123.284 1.06049 123.377 1.08638 123.465 1.11967C123.554 1.15296 123.713 1.20105 123.835 1.24914L124.083 1.34531C124.268 1.41928 124.453 1.49696 124.634 1.58573C124.756 1.63752 124.874 1.70041 125.004 1.76329C125.133 1.82617 125.174 1.85576 125.263 1.90384C125.351 1.95193 125.448 2.01111 125.544 2.0666L125.817 2.23675C126.475 2.66049 127.083 3.15679 127.629 3.71632C127.701 3.78167 127.769 3.85082 127.833 3.92346C128.079 4.18011 128.313 4.44925 128.532 4.72983C128.632 4.85189 128.728 4.98136 128.816 5.09972C129.207 5.63098 129.554 6.19253 129.856 6.77904C129.915 6.88631 129.97 6.98988 130.018 7.09715C130.129 7.31909 130.233 7.54472 130.333 7.77406C130.384 7.89242 130.433 8.00709 130.477 8.12545C130.562 8.3252 130.64 8.53234 130.71 8.73578C130.747 8.83935 130.784 8.94662 130.817 9.05019C130.88 9.24993 130.947 9.44967 131.002 9.65681C131.032 9.75299 131.061 9.85286 131.083 9.95643C131.18 10.2967 131.261 10.6444 131.331 10.9995C131.353 11.0932 131.372 11.1857 131.387 11.2769C131.453 11.6468 131.509 11.9908 131.557 12.3533C131.575 12.4939 131.59 12.6271 131.601 12.7602C131.687 13.5611 131.723 14.3666 131.708 15.1719C131.712 15.2533 131.712 15.3421 131.708 15.4345Z" fill="#C7C7C7"/>
<path d="M10.998 250.55L10.728 250.443C10.5505 250.369 10.3582 250.284 10.1992 250.199C9.11713 249.649 8.13668 248.918 7.29997 248.038L7.11877 247.85C6.96715 247.68 6.81922 247.513 6.6713 247.336L6.4753 247.092C6.14036 246.668 5.82925 246.226 5.5434 245.767L5.38808 245.516C5.23646 245.261 5.09224 244.998 4.95171 244.732C4.90364 244.647 4.85927 244.558 4.81489 244.465L4.66327 244.155L4.51905 243.84C4.48577 243.774 4.45248 243.703 4.4229 243.633C4.39332 243.563 4.34525 243.456 4.31196 243.363C4.08762 242.83 3.88669 242.279 3.70918 241.71C3.6759 241.61 3.64632 241.506 3.61673 241.406C3.52058 241.088 3.43552 240.766 3.35787 240.441C3.32828 240.322 3.29869 240.204 3.27281 240.071C3.07366 239.177 2.93161 238.272 2.84754 237.36C2.84754 237.23 2.82165 237.104 2.81425 236.99C2.76618 236.354 2.744 235.706 2.75139 235.055C2.75139 234.926 2.75139 234.793 2.75139 234.663C2.77777 233.733 2.85678 232.806 2.98806 231.885L33.7409 21.046C35.0056 12.3683 41.0519 5.11095 47.4532 4.51172C41.6916 5.09985 36.2481 11.6581 35.1054 19.4813L3.86449 233.683C2.76248 241.251 5.89102 248.486 10.998 250.55Z" fill="url(#paint2_linear_1010_1741)"/>
<path d="M131.229 19.7918L97.2066 253.195C96.9412 255.035 96.4442 256.835 95.7274 258.551C95.6757 258.676 95.6239 258.802 95.5684 258.921C95.513 259.039 95.4575 259.165 95.3983 259.29C95.3391 259.416 95.3133 259.475 95.2689 259.564C95.1358 259.834 94.9989 260.101 94.8584 260.359C94.7918 260.474 94.729 260.593 94.6661 260.703C94.6032 260.814 94.4812 261.018 94.385 261.173C94.2889 261.329 94.2593 261.38 94.1927 261.48C94.1262 261.58 94.0559 261.695 93.982 261.802C93.786 262.094 93.5826 262.383 93.3681 262.66C93.3015 262.749 93.235 262.838 93.1647 262.923C93.0944 263.008 93.0094 263.115 92.928 263.211C92.8467 263.308 92.769 263.404 92.6913 263.492C92.6137 263.581 92.5286 263.677 92.4473 263.766C92.3659 263.855 92.2809 263.947 92.1958 264.036C92.0306 264.214 91.8605 264.384 91.6855 264.547C91.4192 264.802 91.1493 265.042 90.8682 265.286L90.6168 265.486C90.4245 265.638 90.2469 265.782 90.0325 265.926L89.7736 266.1C89.4889 266.293 89.1967 266.47 88.9009 266.633C88.8047 266.688 88.7049 266.74 88.605 266.792C88.4053 266.899 88.2056 266.995 88.0022 267.088C87.9024 267.132 87.8026 267.18 87.7027 267.217C87.381 267.36 87.0513 267.483 86.7153 267.587C86.6266 267.62 86.5415 267.643 86.4528 267.669C86.364 267.694 86.2457 267.731 86.1384 267.757L85.8204 267.835C85.5837 267.887 85.3471 267.935 85.1067 267.972L84.8552 268.009C84.5409 268.053 84.2229 268.079 83.9048 268.094H83.572H83.2022C82.984 268.094 82.7658 268.075 82.5477 268.057L82.2148 268.02C88.5015 268.675 94.3998 262.967 95.6165 254.611L130.112 18.1162C131.351 9.60868 127.116 2.77305 120.63 2.32178C127.856 2.73606 132.608 10.3337 131.229 19.7918Z" fill="url(#paint3_linear_1010_1741)"/>
<path d="M97.1883 253.187L96.9369 254.9C95.4946 264.791 88.1467 271.312 80.6656 269.462L11.8822 252.47C5.53269 250.901 1.49073 242.371 2.79244 233.435L3.01803 231.889C2.88674 232.809 2.80772 233.737 2.78135 234.667C2.78135 234.796 2.78135 234.929 2.78135 235.059C2.78135 235.71 2.78135 236.357 2.84422 236.993C2.84422 237.119 2.84422 237.245 2.8775 237.363C2.96158 238.275 3.10362 239.181 3.30277 240.074C3.32866 240.193 3.35824 240.311 3.38783 240.444C3.46549 240.77 3.55054 241.092 3.64668 241.41C3.67627 241.51 3.70585 241.613 3.73913 241.713C3.91664 242.283 4.11757 242.834 4.34192 243.366C4.3752 243.459 4.41587 243.548 4.45285 243.636C4.48983 243.725 4.51572 243.777 4.549 243.844L4.69323 244.158L4.84484 244.469C4.88922 244.561 4.9336 244.65 4.98168 244.735C5.1222 245.001 5.26642 245.264 5.41804 245.519L5.57335 245.771C5.8592 246.229 6.17032 246.671 6.50526 247.095L6.70126 247.339C6.84918 247.517 6.9971 247.683 7.14872 247.853L7.32992 248.042C8.16027 248.918 9.13306 249.647 10.207 250.198C10.3808 250.283 10.5583 250.369 10.7358 250.443C10.917 250.517 11.1056 250.587 11.2831 250.653L11.5679 250.75C11.7454 250.805 11.9377 250.857 12.1078 250.901L80.917 267.776C81.129 267.828 81.3398 267.872 81.5494 267.909L81.8859 267.964C82.0671 267.99 82.2557 268.012 82.4258 268.027H82.5515C82.7697 268.049 82.9879 268.061 83.2061 268.064H83.5759H83.9087C84.2267 268.064 84.5448 268.024 84.8591 267.979L85.1106 267.942C85.3509 267.905 85.5876 267.857 85.8243 267.805L86.1423 267.728C86.2496 267.702 86.3531 267.672 86.4566 267.639C86.5602 267.606 86.6305 267.591 86.7192 267.557C87.0552 267.453 87.3849 267.33 87.7066 267.188C87.8064 267.151 87.9063 267.106 88.0061 267.058C88.2095 266.966 88.4092 266.87 88.6089 266.762C88.7088 266.714 88.8086 266.659 88.9047 266.603C89.2006 266.437 89.4928 266.263 89.7775 266.071L90.0363 265.897C90.2323 265.752 90.4283 265.608 90.6206 265.457C90.7057 265.394 90.787 265.327 90.8721 265.257C91.1532 265.024 91.4231 264.783 91.6894 264.517C91.8632 264.354 92.037 264.184 92.1997 264.007C92.2848 263.918 92.3698 263.829 92.4512 263.737C92.5325 263.644 92.6176 263.559 92.6952 263.463C92.7729 263.367 92.8579 263.278 92.9319 263.182C93.0059 263.086 93.0909 262.993 93.1686 262.893C93.2462 262.793 93.3054 262.719 93.372 262.631C93.5865 262.353 93.7898 262.065 93.9858 261.772C94.0598 261.664 94.1301 261.557 94.1966 261.451C94.2632 261.351 94.3261 261.247 94.3889 261.144C94.4518 261.04 94.5775 260.833 94.67 260.674C94.7624 260.515 94.7994 260.448 94.8623 260.33C95.0028 260.071 95.1396 259.805 95.2728 259.535C95.3171 259.446 95.3615 259.353 95.4022 259.261C95.4429 259.168 95.5168 259.017 95.5723 258.891C95.6278 258.765 95.6795 258.643 95.7313 258.521C96.4387 256.811 96.9282 255.019 97.1883 253.187Z" fill="url(#paint4_linear_1010_1741)"/>
<path d="M131.479 18.0794L131.227 19.792C132.585 10.4818 128.006 2.97292 120.962 2.333L120.625 2.30712H120.281C120.067 2.30712 119.856 2.30712 119.634 2.30712L48.0439 4.50428C47.8553 4.50428 47.6741 4.50428 47.4818 4.53757C41.0805 5.1368 35.0343 12.3941 33.7695 21.0718L33.9951 19.5257C34.0173 19.3654 34.0432 19.2063 34.0728 19.0485C34.0728 18.9301 34.1098 18.8118 34.1319 18.6786C34.18 18.4197 34.2281 18.1607 34.2873 17.9055L34.376 17.506C34.3945 17.4358 34.4093 17.3692 34.4278 17.2952C34.4463 17.2212 34.4685 17.1287 34.4907 17.0437C34.5128 16.9586 34.5609 16.7773 34.5979 16.6442C34.6608 16.4112 34.7273 16.1818 34.7976 15.9525C34.8309 15.8378 34.8678 15.7268 34.9048 15.6159C35.0121 15.2756 35.1267 14.9464 35.2524 14.6172C35.2931 14.5136 35.3338 14.41 35.3708 14.3065C35.4078 14.2029 35.4706 14.0512 35.5224 13.9366L35.6555 13.6259C35.6925 13.5408 35.7258 13.4557 35.7665 13.3706L35.8996 13.0636C35.9366 12.9859 35.9699 12.912 36.0068 12.838L36.1696 12.5051C36.262 12.309 36.3618 12.1167 36.4617 11.9243C36.5135 11.8282 36.5652 11.732 36.6207 11.6358C36.6762 11.5397 36.7428 11.4102 36.8056 11.2992C37.2364 10.5373 37.7131 9.80236 38.2331 9.09835C38.307 9.00218 38.3773 8.90231 38.4549 8.80614C38.5326 8.70997 38.6214 8.5879 38.7101 8.48063C38.8506 8.30308 38.9949 8.12924 39.1391 7.95909L39.6161 7.42644C39.7788 7.25259 39.9415 7.08244 40.108 6.91599L40.3594 6.67185C40.5258 6.5091 40.6959 6.35375 40.8698 6.19839C41.0436 6.04304 41.2137 5.90247 41.3912 5.75822C41.5687 5.61396 41.761 5.4771 41.9237 5.34394L42.1973 5.14789C42.2861 5.08131 42.3786 5.02213 42.4673 4.95925L42.7447 4.778L43.0257 4.60045C43.2106 4.48949 43.3955 4.38221 43.5878 4.27864L43.8578 4.13438H43.8836L44.1573 4.00122L44.4273 3.87176L44.7379 3.7423L45.0263 3.62763L45.3222 3.52037C45.4183 3.48338 45.5182 3.45008 45.618 3.42049C45.814 3.35391 46.0137 3.29843 46.2134 3.24664L46.5092 3.17636C46.72 3.12828 46.9345 3.08759 47.149 3.0543C47.3635 3.02101 47.4892 3.00621 47.6556 2.98772L47.97 2.96182H48.2806L119.878 0.616699H120.536C120.762 0.616699 120.984 0.616701 121.206 0.653691L121.539 0.690677L121.871 0.738765C121.982 0.738765 122.093 0.775752 122.201 0.794247L122.522 0.86083L122.84 0.938505L123.129 1.01618H123.192C123.28 1.04578 123.373 1.07167 123.462 1.10496C123.55 1.13825 123.713 1.18633 123.831 1.23442L124.079 1.33059C124.264 1.40457 124.449 1.48595 124.626 1.57103C124.752 1.62281 124.87 1.68569 124.996 1.74857C125.122 1.81145 125.17 1.84105 125.255 1.88913C125.34 1.93722 125.444 1.9927 125.536 2.05189L125.81 2.22204C126.468 2.64461 127.076 3.14102 127.622 3.70161C127.694 3.76601 127.762 3.83521 127.825 3.90875C128.069 4.16398 128.302 4.434 128.524 4.71512C128.624 4.84088 128.72 4.96665 128.813 5.08501C129.201 5.61723 129.547 6.17867 129.848 6.76433C129.907 6.8716 129.959 6.97517 130.011 7.08244C130.125 7.30807 130.229 7.53371 130.325 7.75934C130.377 7.87401 130.425 7.99237 130.469 8.11074C130.554 8.31048 130.628 8.51763 130.702 8.72107C130.739 8.82834 130.773 8.9319 130.81 9.03547C130.872 9.23522 130.939 9.43496 130.994 9.6421C131.024 9.74197 131.054 9.83815 131.076 9.94172C131.172 10.282 131.253 10.6297 131.327 10.9848C131.327 11.0773 131.361 11.1698 131.379 11.2622C131.446 11.6321 131.501 11.9761 131.545 12.3423C131.545 12.4755 131.582 12.6086 131.594 12.7455C131.677 13.5466 131.714 14.3518 131.704 15.1572C131.704 15.2423 131.704 15.3311 131.704 15.4235C131.704 15.516 131.704 15.7121 131.704 15.8563C131.704 16.0006 131.704 16.1448 131.679 16.2928C131.653 16.4407 131.656 16.5887 131.645 16.733C131.619 17.0067 131.59 17.2767 131.557 17.5504C131.532 17.7304 131.506 17.9068 131.479 18.0794Z" fill="url(#paint5_linear_1010_1741)"/>
<path d="M120.281 2.29248C120.07 2.29248 119.856 2.29248 119.634 2.29248L48.0438 4.48965C47.8552 4.48965 47.674 4.48965 47.4818 4.52294C41.6906 5.09997 36.2471 11.6582 35.1044 19.4814L3.86349 233.683C2.75408 241.384 6.00095 248.741 11.2595 250.654L11.5443 250.75C11.7218 250.805 11.9141 250.857 12.0842 250.902L80.8934 267.776C81.1055 267.828 81.3162 267.872 81.5258 267.909L81.8623 267.965C88.2821 268.86 94.358 263.101 95.5968 254.597L130.092 18.1017C131.368 9.44622 126.96 2.52181 120.281 2.29248ZM94.5725 254.364C93.463 262.047 87.916 267.417 82.0213 266.604C81.9178 266.604 81.8106 266.574 81.7033 266.552C81.511 266.519 81.3335 266.478 81.1227 266.43L12.3024 249.655C12.1323 249.614 11.9659 249.566 11.7995 249.515L11.5443 249.429C6.69619 247.68 3.73406 240.859 4.75102 233.894L36.0068 19.4814C37.0496 12.3314 41.9865 6.31692 47.3153 5.77688H47.3412C47.5113 5.77688 47.6851 5.75098 47.8589 5.74728L119.434 3.64629C119.634 3.64629 119.834 3.64629 120.03 3.64629C126.18 3.87563 130.144 10.2304 128.994 18.1165L94.5725 254.364Z" fill="#404040"/>
<path d="M128.994 18.2123L94.5396 254.452C94.3316 255.862 93.9592 257.242 93.4302 258.565C93.0427 259.553 92.5584 260.499 91.9843 261.391C91.8697 261.569 91.7476 261.743 91.6145 261.909C91.4296 262.165 91.2447 262.409 91.0487 262.649C90.5171 263.299 89.9239 263.896 89.2773 264.432C90.6959 262.23 91.6195 259.746 91.9843 257.152L92.38 254.434C92.4096 254.275 92.4355 254.112 92.4577 253.949L126.849 18.2197C126.872 18.0532 126.894 17.8868 126.912 17.724L127.3 15.0645C127.711 12.5069 127.539 9.88963 126.798 7.40771C128.724 10.0599 129.623 13.9326 128.994 18.2123Z" fill="url(#paint6_linear_1010_1741)"/>
<path d="M119.793 4.99609H119.745C119.579 4.99609 119.408 4.99609 119.238 4.99609L47.674 6.99722C47.5224 6.99722 47.3708 6.99722 47.2229 7.01941H47.1785H47.1563C42.3489 7.51507 37.8521 12.9747 36.9054 19.4589L5.60526 234.079C4.68076 240.418 7.37291 246.607 11.7773 248.19L11.9881 248.26H12.0139C12.1619 248.305 12.3135 248.349 12.4651 248.386L81.3039 265.09C81.4777 265.131 81.6516 265.164 81.8254 265.194H81.8586C81.944 265.213 82.0305 265.226 82.1175 265.235C87.4611 265.974 92.472 261.088 93.5 254.138L127.921 18.1458C128.964 10.9736 125.37 5.21063 119.793 4.99609ZM90.7413 253.491C90.4691 255.549 89.6262 257.49 88.308 259.094C88.2414 259.172 88.1749 259.242 88.1083 259.316C87.9087 259.536 87.6976 259.744 87.4759 259.941C87.2836 260.112 87.0839 260.274 86.8806 260.422C86.628 260.606 86.3637 260.773 86.0892 260.922C85.8228 261.066 85.5459 261.189 85.2608 261.292C85.1203 261.347 84.9798 261.391 84.8355 261.436C84.6933 261.48 84.5489 261.517 84.4029 261.547C84.1093 261.61 83.8114 261.651 83.5117 261.669C83.1488 261.687 82.785 261.673 82.4244 261.628H82.3246H82.2765H82.2432H82.2099H82.1175H82.0213L81.829 261.588L12.9458 245.116L12.7794 245.072L12.613 245.02H12.5908H12.5649H12.5243L12.4392 244.987C9.20344 243.836 7.2176 239.294 7.89804 234.63L39.2795 19.4589C39.9711 14.7243 43.2327 10.7405 46.7495 10.3411H46.8087H46.9012C46.9985 10.336 47.096 10.336 47.1933 10.3411L118.717 8.59146H119.131C119.156 8.58776 119.181 8.58776 119.205 8.59146C119.279 8.59379 119.353 8.59996 119.427 8.60995H119.527L119.723 8.63584C119.804 8.63584 119.882 8.65804 119.959 8.67284C120.072 8.69057 120.183 8.71403 120.292 8.74312L120.355 8.76161L120.621 8.83929L120.991 8.97985C121.094 9.01694 121.194 9.06017 121.291 9.10931C121.398 9.15764 121.503 9.21197 121.605 9.27206C121.814 9.38055 122.014 9.50418 122.204 9.64195C122.379 9.76933 122.547 9.90641 122.707 10.0525C122.741 10.0889 122.777 10.1235 122.814 10.1561L123.01 10.3485C123.095 10.4335 123.173 10.526 123.254 10.6185C123.41 10.8071 123.561 10.9884 123.702 11.2066C123.777 11.3076 123.845 11.4139 123.905 11.5247C123.972 11.6332 124.035 11.7442 124.094 11.8576C124.348 12.3216 124.555 12.8098 124.711 13.315C124.796 13.5776 124.863 13.8476 124.926 14.1214C124.989 14.3951 125.037 14.6762 125.077 14.9684C125.096 15.1127 125.111 15.2569 125.126 15.4012C125.151 15.723 125.17 16.0448 125.17 16.374C125.17 16.5072 125.17 16.6366 125.17 16.7698C125.158 17.2477 125.117 17.7245 125.048 18.1976L90.7413 253.491Z" fill="black"/>
<path d="M57.8154 14.2375C57.8154 14.1743 57.7895 14.1149 57.7784 14.0517C57.777 14.0295 57.777 14.0071 57.7784 13.9849C57.7821 14.0703 57.7969 14.1558 57.8154 14.2375Z" fill="black"/>
<path d="M105.482 13.019C105.47 13.0431 105.459 13.0678 105.449 13.093C105.416 13.1559 105.386 13.2225 105.35 13.2891L105.482 13.019Z" fill="black"/>
<path d="M107.723 8.81006C107.094 8.86554 106.502 9.49066 106.325 10.2896C106.325 10.3599 106.299 10.4302 106.288 10.5005C106.236 10.789 106.17 11.0775 106.092 11.3623C106.062 11.4622 106.036 11.5584 106.007 11.6545C105.97 11.7729 105.933 11.8876 105.892 12.0022C105.852 12.1169 105.818 12.2094 105.781 12.313L105.752 12.3869L105.722 12.4646C105.722 12.4868 105.722 12.5053 105.696 12.5275C105.68 12.5611 105.667 12.5957 105.656 12.6311C105.637 12.668 105.622 12.7087 105.604 12.7457C105.567 12.8419 105.522 12.9344 105.482 13.0268L105.349 13.2969C105.351 13.3091 105.351 13.3216 105.349 13.3339C105.312 13.4115 105.271 13.4855 105.23 13.5595C105.19 13.6335 105.16 13.689 105.123 13.7518C105.113 13.7735 105.102 13.7945 105.09 13.8147L105.031 13.9109C105.007 13.9553 104.981 13.9985 104.953 14.0404V14.0773C104.943 14.0945 104.932 14.1106 104.92 14.1254C104.901 14.155 104.886 14.1846 104.868 14.2105C104.849 14.2364 104.827 14.2771 104.805 14.3067L104.753 14.3881L104.72 14.4324L104.657 14.5286C104.643 14.5511 104.627 14.5722 104.609 14.5915C104.59 14.627 104.568 14.6604 104.542 14.6914V14.7136C104.542 14.7136 104.542 14.7136 104.542 14.7321L104.468 14.8356L104.439 14.8763L104.354 14.9873L104.243 15.1241C104.21 15.173 104.173 15.2188 104.132 15.261C104.11 15.2908 104.087 15.3193 104.062 15.3461C104.035 15.3786 104.007 15.4095 103.977 15.4386C103.954 15.4707 103.928 15.5004 103.899 15.5273C103.854 15.5806 103.806 15.6312 103.755 15.679C103.721 15.7211 103.684 15.7607 103.644 15.7973L103.574 15.8676L103.407 16.0267L103.244 16.1746L103.145 16.2597C103.108 16.2937 103.07 16.3258 103.03 16.3559L102.919 16.4447L102.867 16.4891L102.679 16.6296C102.631 16.669 102.58 16.7049 102.527 16.7369C102.467 16.7826 102.404 16.8246 102.338 16.8626L102.264 16.9144L102.124 16.9995C102.083 17.0263 102.041 17.051 101.998 17.0735C101.961 17.0966 101.923 17.1176 101.884 17.1364L101.824 17.1697L101.773 17.1955C101.673 17.2473 101.58 17.2954 101.48 17.3361C101.381 17.3768 101.299 17.4175 101.21 17.4508C101.122 17.4841 101.011 17.5285 100.915 17.558C100.717 17.6243 100.516 17.6787 100.312 17.7208C100.231 17.7208 100.145 17.7541 100.06 17.7652H100.009L99.7941 17.7874L99.5501 17.8096H99.38L62.0927 18.3829H62.0225C61.9485 18.3829 61.8746 18.3829 61.8006 18.3829C61.7365 18.3864 61.6723 18.3864 61.6083 18.3829H61.5639C61.49 18.3829 61.416 18.3607 61.342 18.3496C61.1693 18.3128 60.9989 18.2659 60.8317 18.2091C60.7467 18.1832 60.669 18.1499 60.5839 18.1166L60.3658 18.013C60.2881 17.976 60.2141 17.9316 60.1365 17.8872L60.0958 17.8614L60.0514 17.8318C60.02 17.8163 59.9903 17.7977 59.9627 17.7763L59.8665 17.7097L59.763 17.6283C59.744 17.6157 59.7266 17.6008 59.7112 17.5839C59.661 17.55 59.614 17.5116 59.5707 17.4693C59.5314 17.44 59.4954 17.4065 59.4634 17.3694L59.3266 17.2399C59.3137 17.2279 59.3025 17.2142 59.2933 17.1992C59.2635 17.175 59.2362 17.1477 59.212 17.1179C59.183 17.0901 59.1558 17.0604 59.1306 17.0291L59.0641 16.9514L58.9568 16.8146L58.8459 16.6666L58.8015 16.6037C58.7759 16.5681 58.7524 16.5311 58.7312 16.4927C58.6974 16.4474 58.6677 16.3991 58.6425 16.3485C58.6235 16.3245 58.6074 16.2985 58.5944 16.2708C58.5759 16.2412 58.5574 16.2153 58.5426 16.1857C58.5269 16.1598 58.5133 16.1325 58.5019 16.1044C58.488 16.0837 58.4768 16.0614 58.4687 16.0378C58.4354 15.9712 58.4021 15.9083 58.3725 15.8417C58.3548 15.8085 58.34 15.7739 58.3281 15.7382C58.3198 15.7271 58.3135 15.7145 58.3097 15.7012C58.3097 15.6716 58.2838 15.6383 58.269 15.605V15.5865C58.2706 15.5792 58.2706 15.5716 58.269 15.5643C58.2541 15.5363 58.2429 15.5064 58.2357 15.4755C58.2249 15.4556 58.2162 15.4345 58.2098 15.4127C58.2098 15.388 58.1987 15.3584 58.1765 15.3239C58.1744 15.3104 58.1744 15.2967 58.1765 15.2832C58.1651 15.2592 58.1552 15.2345 58.1469 15.2092C58.1469 15.1796 58.1285 15.15 58.1174 15.1167C58.1063 15.0835 58.1174 15.0687 58.0915 15.0391C58.0926 15.0231 58.0926 15.007 58.0915 14.991C58.0915 14.991 58.0915 14.9688 58.0915 14.9577C58.0764 14.9179 58.0641 14.8771 58.0545 14.8356C58.0545 14.806 58.036 14.7801 58.0286 14.7469C58.0303 14.7272 58.0303 14.7074 58.0286 14.6877C58.0286 14.6322 57.999 14.5693 57.9842 14.5064C57.9694 14.4435 57.9509 14.3696 57.9361 14.2993V14.2808C57.9341 14.2685 57.9341 14.256 57.9361 14.2438C57.9177 14.1624 57.9029 14.0773 57.8918 13.9923C57.8807 13.9072 57.8622 13.8184 57.8548 13.7259C57.853 13.6902 57.853 13.6544 57.8548 13.6187V13.5188C57.8527 13.5004 57.8527 13.4818 57.8548 13.4633V13.3893C57.8548 13.3671 57.8548 13.3413 57.8548 13.3228C57.8548 13.2229 57.8548 13.1267 57.8363 13.0268C57.8178 12.927 57.8363 12.8086 57.8363 12.6976C57.8363 12.6089 57.8363 12.5164 57.8363 12.4202C57.8403 12.1482 57.8588 11.8765 57.8918 11.6065C57.8957 11.5383 57.9031 11.4704 57.914 11.403C57.9657 10.6632 57.5959 10.0899 57.0449 10.064L107.723 8.81006Z" fill="black"/>
<path d="M61.783 18.4087C61.8569 18.4087 61.9309 18.4087 62.0049 18.4087H61.8791H61.7497H61.6055C61.6646 18.4117 61.7238 18.4117 61.783 18.4087Z" fill="black"/>
<path d="M99.8991 17.802H99.74C99.6921 17.8075 99.6437 17.8075 99.5958 17.802H99.459L99.703 17.7798L99.8991 17.802Z" fill="black"/>
<path d="M57.7335 13.718C57.7353 13.6861 57.7353 13.654 57.7335 13.6221C57.7321 13.654 57.7321 13.6861 57.7335 13.718Z" fill="black"/>
<path d="M57.8154 14.2375C57.8154 14.1743 57.7895 14.1149 57.7784 14.0517C57.777 14.0295 57.777 14.0071 57.7784 13.9849C57.7821 14.0703 57.7969 14.1558 57.8154 14.2375Z" fill="black"/>
<path d="M58.2664 15.6938C58.248 15.6605 58.2332 15.6198 58.2148 15.5791V15.5976C58.2406 15.6309 58.2517 15.6642 58.2664 15.6938Z" fill="black"/>
<path d="M58.4279 16.0309C58.4041 15.9916 58.3831 15.9506 58.3651 15.9083C58.3513 15.8843 58.339 15.8595 58.3281 15.834C58.3614 15.9009 58.3947 15.964 58.4279 16.0309Z" fill="black"/>
<path d="M58.5054 16.1784C58.4878 16.1528 58.4729 16.1254 58.4609 16.0967C58.4735 16.1251 58.4884 16.1524 58.5054 16.1784Z" fill="black"/>
<path d="M59.0268 16.944C58.9898 16.9033 58.9528 16.8552 58.9195 16.8108C58.8956 16.7834 58.8746 16.7537 58.8567 16.7221C58.8386 16.7027 58.8225 16.6817 58.8086 16.6592L58.9195 16.8071L59.0268 16.944Z" fill="black"/>
<path d="M59.0938 17.0215C59.1186 17.0526 59.1455 17.0821 59.1742 17.1097L59.1486 17.0876L59.0938 17.0215Z" fill="black"/>
<path d="M59.4402 17.3647L59.3598 17.2949L59.3086 17.2397L59.4402 17.3647Z" fill="black"/>
<path d="M60.3494 18.0023C60.2863 17.9688 60.2194 17.9391 60.1563 17.8983L60.1191 17.876C60.1823 17.9354 60.2714 17.98 60.3494 18.0023Z" fill="black"/>
<path d="M60.5502 18.1202C60.6353 18.1535 60.7129 18.1868 60.798 18.2127C60.7412 18.1968 60.6856 18.177 60.6316 18.1535L60.5502 18.1239L60.443 18.0721C60.4046 18.0566 60.3675 18.038 60.332 18.0166L60.5502 18.1202Z" fill="black"/>
<path d="M61.3248 18.3714C61.3987 18.3714 61.4727 18.3973 61.5467 18.4047C61.4806 18.4005 61.415 18.3906 61.3507 18.3751C61.3507 18.3751 61.3322 18.3751 61.3248 18.3751L61.2397 18.3529C61.1809 18.3432 61.1229 18.3297 61.0659 18.3122L60.8477 18.2456H60.8145C60.982 18.2974 61.1524 18.3394 61.3248 18.3714Z" fill="black"/>
<path d="M61.7821 18.4087H61.6975H61.6055C61.6643 18.4117 61.7233 18.4117 61.7821 18.4087Z" fill="black"/>
<path d="M99.381 17.8501H99.3033L62.164 18.4234H62.0938L99.381 17.8501Z" fill="black"/>
<path d="M99.6836 17.824L99.899 17.8018H99.795H99.7022L99.6836 17.824Z" fill="black"/>
<path d="M100.201 17.7502C100.405 17.708 100.606 17.6537 100.803 17.5874L100.759 17.6059L100.5 17.6799C100.435 17.7011 100.368 17.7172 100.301 17.728L100.201 17.7539H100.171C100.097 17.7539 100.023 17.7834 99.9492 17.7908C100.034 17.7834 100.119 17.765 100.201 17.7502Z" fill="black"/>
<path d="M101.37 17.3657C101.325 17.3904 101.278 17.4114 101.23 17.4286L101.101 17.4841L101.001 17.5211L100.805 17.5877C100.901 17.5581 101.001 17.5211 101.101 17.4804C101.2 17.4397 101.278 17.4064 101.37 17.3657Z" fill="black"/>
<path d="M101.369 17.3657C101.469 17.325 101.561 17.2769 101.661 17.2251L101.598 17.2621C101.524 17.3006 101.447 17.3351 101.369 17.3657Z" fill="black"/>
<path d="M102.586 16.6518L102.774 16.5112L102.704 16.5704L102.586 16.6518Z" fill="black"/>
<path d="M103.055 16.2778L102.975 16.3518L102.941 16.374C102.981 16.344 103.019 16.3119 103.055 16.2778Z" fill="black"/>
<path d="M103.485 15.8857L103.415 15.956L103.319 16.0485C103.263 16.0966 103.212 16.1484 103.156 16.1928L103.319 16.0448L103.485 15.8857Z" fill="black"/>
<path d="M104.046 15.2793C104.023 15.3091 103.999 15.3374 103.973 15.3638C103.998 15.3372 104.021 15.3089 104.042 15.2793H104.046Z" fill="black"/>
<path d="M104.275 14.998L104.213 15.0752L104.162 15.134L104.272 14.998H104.275Z" fill="black"/>
<path d="M104.483 14.7246L104.391 14.8467L104.464 14.7431C104.464 14.7431 104.475 14.732 104.483 14.7246Z" fill="black"/>
<path d="M105.482 13.019C105.47 13.0431 105.459 13.0678 105.449 13.093C105.416 13.1559 105.386 13.2225 105.35 13.2891L105.482 13.019Z" fill="black"/>
<path d="M105.667 12.6235L105.623 12.7276C105.623 12.7015 105.638 12.6607 105.667 12.6235Z" fill="black"/>
<path d="M92.3542 254.434L91.9844 257.153C91.627 259.74 90.7136 262.22 89.307 264.421C87.1806 266.171 84.629 267.01 82.0145 266.67C81.9076 266.657 81.8014 266.639 81.6965 266.615C81.5042 266.585 81.3267 266.544 81.1159 266.496L12.2771 249.714C12.1107 249.673 11.9405 249.625 11.7778 249.574L11.519 249.489C11.4006 249.444 11.2774 249.396 11.1492 249.344C9.14114 248.505 7.48073 246.781 6.34173 244.536C5.78915 242.14 5.69006 239.662 6.04959 237.23L6.47117 234.334C5.99042 237.641 6.60429 240.903 7.97626 243.33C8.96733 245.09 10.3615 246.415 12.0256 247.01C12.0778 247.034 12.1323 247.053 12.1883 247.066H12.2105H12.2364C12.3695 247.11 12.5064 247.147 12.6432 247.18L81.4968 263.796C81.6484 263.833 81.8074 263.863 81.9627 263.888H81.996H82.0219C82.0925 263.905 82.1642 263.916 82.2364 263.922C86.8996 264.569 91.2966 260.43 92.3542 254.434Z" fill="url(#paint7_linear_1010_1741)"/>
<path d="M129.005 18.1421V18.1162C130.155 10.2301 126.19 3.87533 120.041 3.646C119.848 3.646 119.649 3.646 119.445 3.646L47.8698 5.74699C47.696 5.74699 47.5222 5.74699 47.3521 5.77658H47.3262C47.108 5.79877 46.8898 5.82837 46.6754 5.86905C44.4787 6.27594 42.3782 7.59276 40.6217 9.5088C39.409 11.6942 38.6034 14.0818 38.2438 16.5553L37.8223 19.4552C38.2602 16.2928 39.6716 13.3452 41.8605 11.0217C43.3693 9.48662 45.1592 8.4768 47.0119 8.28076H47.0562H47.1191C47.2596 8.28076 47.3854 8.26227 47.4889 8.26227L119.038 6.35361H119.538C124.412 6.54966 127.596 11.4729 126.893 17.6576L127.281 14.998C127.688 12.4415 127.516 9.82626 126.778 7.34493C128.735 9.98597 129.633 13.844 129.005 18.1421Z" fill="url(#paint8_linear_1010_1741)"/>
<path d="M6.34488 244.48C4.82499 241.554 4.17044 237.744 4.73254 233.879L36.0068 19.4813C36.5209 15.771 38.1216 12.2959 40.6071 9.49414C39.3973 11.6805 38.5929 14.0678 38.233 16.5406L6.06013 237.164C5.69633 239.599 5.79293 242.081 6.34488 244.48Z" fill="url(#paint9_linear_1010_1741)"/>
<path d="M129.009 18.1495L94.5731 254.389C94.3651 255.8 93.9927 257.182 93.4637 258.506C93.0714 259.491 92.5834 260.435 92.0067 261.325C91.8921 261.502 91.77 261.673 91.6369 261.843C91.4557 262.098 91.2671 262.342 91.0711 262.583C90.5382 263.244 89.9384 263.849 89.2812 264.388V264.365C90.697 262.164 91.6193 259.682 91.9845 257.09L127.293 15.0017C127.7 12.4452 127.528 9.8299 126.79 7.34863C128.739 9.99707 129.638 13.8514 129.009 18.1495Z" fill="url(#paint10_linear_1010_1741)"/>
<path d="M86.4963 11.9134L76.0567 12.1391C75.7942 12.1391 75.6241 11.8727 75.6869 11.5287L75.7313 11.2106C75.7418 11.0578 75.8026 10.9128 75.9043 10.7984C76.0061 10.6839 76.1429 10.6064 76.2934 10.5781L86.7366 10.334C87.0029 10.334 87.1804 10.604 87.1286 10.9517L87.0805 11.2735C87.0693 11.4304 87.0055 11.5788 86.8995 11.695C86.7935 11.8111 86.6514 11.888 86.4963 11.9134Z" fill="url(#paint11_linear_1010_1741)"/>
<path d="M125.067 18.1757L90.7415 253.491C90.4693 255.549 89.6264 257.491 88.3082 259.095C88.2417 259.172 88.1751 259.243 88.1085 259.317C87.9014 259.539 87.6943 259.749 87.4762 259.942C87.258 260.134 87.0842 260.275 86.8808 260.423C86.6283 260.606 86.3639 260.773 86.0894 260.922C85.8219 261.064 85.5452 261.187 85.261 261.292C85.1205 261.344 84.98 261.388 84.8358 261.436C84.6952 261.48 84.5473 261.514 84.4031 261.547C84.1092 261.608 83.8114 261.649 83.5119 261.669C83.149 261.687 82.7852 261.673 82.4247 261.628H82.3248H82.2767H82.2287L82.1288 261.606H82.0327L81.8404 261.566L12.9461 245.116L12.7797 245.072L12.6132 245.024H12.5689H12.5467L12.4616 244.991C9.22585 243.84 7.24001 239.298 7.92045 234.634L39.3019 19.4629C39.9935 14.7283 43.2551 10.7445 46.7719 10.345H46.8311H46.9236C47.0209 10.3399 47.1184 10.3399 47.2157 10.345L56.8972 10.1083C57.4482 10.1342 57.818 10.7038 57.7662 11.4473C57.7662 11.4991 57.7662 11.5509 57.7477 11.6027V11.6248C57.7477 11.6248 57.7477 11.6248 57.7477 11.6507C57.7148 11.9208 57.6962 12.1925 57.6922 12.4645C57.6922 12.5607 57.6922 12.6532 57.6922 12.7419C57.6922 12.8529 57.6922 12.9639 57.6922 13.0711C57.6922 13.1784 57.6922 13.2672 57.7107 13.367C57.7107 13.367 57.7107 13.4114 57.7107 13.4336V13.5076C57.7086 13.526 57.7086 13.5447 57.7107 13.5631V13.663C57.7126 13.695 57.7126 13.7271 57.7107 13.7591C57.7107 13.8516 57.7329 13.9367 57.7477 14.0255C57.7625 14.1142 57.7736 14.1956 57.7921 14.277C57.79 14.2892 57.79 14.3017 57.7921 14.314V14.3029C57.7921 14.3732 57.8254 14.4434 57.8402 14.51C57.8549 14.5766 57.8697 14.6358 57.8845 14.6913C57.8862 14.711 57.8862 14.7308 57.8845 14.7505C57.8845 14.7837 57.8845 14.8096 57.9104 14.8392C57.92 14.8807 57.9324 14.9215 57.9474 14.9613C57.9474 14.9613 57.9474 14.9835 57.9474 14.9946C57.9485 15.0106 57.9485 15.0267 57.9474 15.0427C57.9474 15.0723 57.9659 15.0982 57.9733 15.1203C57.9807 15.1425 57.9918 15.1832 58.0029 15.2128C58.0111 15.2381 58.021 15.2628 58.0324 15.2868C58.0304 15.3003 58.0304 15.314 58.0324 15.3275C58.0324 15.3595 58.0435 15.3891 58.0657 15.4163C58.0721 15.4381 58.0808 15.4591 58.0916 15.4791C58.0989 15.51 58.11 15.5399 58.1249 15.5679C58.1265 15.5752 58.1265 15.5828 58.1249 15.5901V15.6086C58.1249 15.6419 58.1508 15.6752 58.1656 15.7048C58.1694 15.7181 58.1757 15.7307 58.1841 15.7418C58.1959 15.7775 58.2108 15.8121 58.2284 15.8453C58.2373 15.8709 58.2484 15.8957 58.2617 15.9193C58.2797 15.9615 58.3008 16.0022 58.3246 16.0414C58.3327 16.0649 58.3439 16.0873 58.3579 16.108C58.3692 16.1361 58.3828 16.1634 58.3986 16.1893C58.3986 16.2189 58.4318 16.2448 58.4503 16.2744C58.4633 16.3021 58.4794 16.3281 58.4984 16.3521C58.5236 16.4027 58.5533 16.451 58.5872 16.4963C58.6084 16.5347 58.6318 16.5717 58.6574 16.6073L58.7018 16.6702C58.7157 16.6927 58.7318 16.7137 58.7499 16.7331C58.7688 16.7629 58.7898 16.7913 58.8127 16.8182C58.846 16.8625 58.883 16.9106 58.92 16.9513L58.9865 17.029L59.042 17.0956L59.0679 17.1178C59.0922 17.1476 59.1194 17.1749 59.1493 17.1991C59.1585 17.2141 59.1697 17.2278 59.1825 17.2398L59.2343 17.2953L59.3157 17.3656C59.3477 17.4027 59.3836 17.4362 59.4229 17.4655C59.4662 17.5078 59.5132 17.5462 59.5634 17.5801C59.5788 17.597 59.5962 17.6119 59.6152 17.6245L59.7188 17.7059L59.8149 17.7725C59.8425 17.7939 59.8723 17.8125 59.9037 17.828C59.9163 17.8407 59.9314 17.8508 59.948 17.8576L59.9887 17.8834C60.001 17.893 60.0147 17.9005 60.0294 17.9056C60.0923 17.9463 60.1588 17.9759 60.2217 18.0092C60.2571 18.0306 60.2942 18.0492 60.3326 18.0647L60.4399 18.1128L60.5212 18.1424C60.5753 18.1659 60.6309 18.1857 60.6876 18.2016H60.7209L60.9391 18.2681C60.996 18.2856 61.0541 18.2992 61.1129 18.3088H61.198C61.198 18.3088 61.198 18.3088 61.2239 18.3088C61.2882 18.3244 61.3538 18.3343 61.4198 18.3384H61.4642H61.5567H61.6084H61.7379C61.8031 18.344 61.8687 18.344 61.9339 18.3384H62.0041L99.1434 17.7651H99.3801C99.4515 17.7706 99.5232 17.7706 99.5946 17.7651C99.6425 17.7706 99.6909 17.7706 99.7388 17.7651H99.7943H99.8979H99.9496C100.024 17.7651 100.098 17.7429 100.172 17.7281H100.201L100.301 17.7059C100.369 17.6951 100.435 17.6791 100.501 17.6578L100.759 17.5838L100.804 17.5653L101 17.4988L101.1 17.4618C101.144 17.4477 101.187 17.4304 101.229 17.41C101.278 17.3928 101.325 17.3718 101.37 17.3471C101.447 17.3226 101.524 17.2942 101.599 17.262C101.617 17.2557 101.635 17.2469 101.651 17.2361L101.702 17.2102L101.762 17.177C101.801 17.1582 101.839 17.1372 101.876 17.1141C101.919 17.0916 101.961 17.0669 102.002 17.0401L102.143 16.955L102.216 16.9032C102.282 16.8652 102.345 16.8232 102.405 16.7775C102.458 16.7455 102.509 16.7096 102.557 16.6702L102.668 16.5925L102.738 16.5333L102.79 16.4889L102.901 16.4002L102.934 16.378L103.015 16.304L103.115 16.2189C103.171 16.1745 103.222 16.1228 103.278 16.0747L103.374 15.9859L103.444 15.9156L103.515 15.8453C103.554 15.8086 103.591 15.7691 103.625 15.727C103.676 15.6792 103.725 15.6285 103.77 15.5753C103.799 15.5484 103.825 15.5187 103.847 15.4865C103.878 15.4575 103.906 15.4266 103.932 15.3941C103.958 15.3672 103.981 15.3388 104.003 15.309C104.044 15.2667 104.081 15.2209 104.114 15.1721L104.165 15.1129C104.187 15.0887 104.207 15.0627 104.225 15.0353L104.31 14.9243L104.339 14.8836L104.413 14.78C104.413 14.78 104.413 14.78 104.413 14.7615V14.7393C104.439 14.7084 104.461 14.675 104.48 14.6395C104.498 14.6202 104.514 14.5991 104.528 14.5766L104.591 14.4804L104.624 14.436L104.676 14.3547C104.698 14.3251 104.716 14.2918 104.739 14.2585C104.761 14.2252 104.772 14.203 104.79 14.1734C104.803 14.1586 104.814 14.1425 104.824 14.1253V14.0883C104.852 14.0465 104.878 14.0033 104.901 13.9589L104.96 13.8627C104.973 13.8425 104.984 13.8215 104.994 13.7998C105.031 13.7369 105.068 13.6741 105.101 13.6075C105.134 13.5409 105.182 13.4595 105.219 13.3818C105.221 13.3696 105.221 13.3571 105.219 13.3449L105.352 13.0748C105.393 12.9824 105.437 12.8899 105.474 12.7937L105.519 12.6901C105.53 12.6548 105.544 12.6202 105.56 12.5866C105.56 12.5644 105.56 12.5459 105.585 12.5237L105.615 12.446L105.645 12.372C105.682 12.2685 105.722 12.1649 105.756 12.0613C105.789 11.9578 105.833 11.832 105.87 11.7136C105.9 11.6175 105.926 11.5213 105.955 11.4214C106.033 11.1366 106.099 10.8481 106.151 10.5596C106.153 10.5498 106.153 10.5398 106.151 10.53V10.5078C106.151 10.456 106.151 10.4005 106.177 10.3487C106.355 9.56084 106.946 8.93572 107.575 8.86914L118.569 8.59912H119.08C119.146 8.60162 119.213 8.60779 119.279 8.61762H119.379L119.575 8.64351L119.812 8.6805L120.145 8.75078L120.207 8.76927L120.474 8.84695L120.843 8.98751L121.143 9.11697C121.25 9.16875 121.358 9.22424 121.457 9.27972C121.664 9.39177 121.864 9.51526 122.056 9.64962C122.227 9.77908 122.397 9.91224 122.559 10.0602C122.593 10.0966 122.629 10.1312 122.667 10.1638L122.863 10.3561L123.107 10.6261C123.262 10.8148 123.414 10.996 123.554 11.2143C123.624 11.3178 123.695 11.4251 123.758 11.5324C123.82 11.6396 123.887 11.7506 123.946 11.8653C124.196 12.331 124.403 12.8189 124.564 13.3227C124.649 13.5853 124.715 13.8553 124.778 14.129C124.841 14.4027 124.889 14.6839 124.93 14.9761C124.948 15.1203 124.963 15.2646 124.978 15.4089C125.004 15.7307 125.022 16.0525 125.022 16.3817C125.022 16.5111 125.022 16.6443 125.022 16.7775C125.064 17.2423 125.079 17.7091 125.067 18.1757Z" fill="url(#paint12_linear_1010_1741)"/>
</g>
<defs>
<linearGradient id="paint0_linear_1010_1741" x1="85.8125" y1="135.273" x2="140.166" y2="135.273" gradientUnits="userSpaceOnUse">
<stop stop-color="#333333"/>
<stop offset="0.37" stop-color="#848484"/>
<stop offset="0.66" stop-color="#BFBFBF"/>
<stop offset="0.88" stop-color="#E3E3E3"/>
<stop offset="1" stop-color="#F1F1F1"/>
</linearGradient>
<linearGradient id="paint1_linear_1010_1741" x1="66.8109" y1="270.088" x2="70.4974" y2="-0.618969" gradientUnits="userSpaceOnUse">
<stop stop-color="#F1F1F1"/>
<stop offset="0.43" stop-color="#EFEFEF"/>
<stop offset="0.62" stop-color="#E8E8E8"/>
<stop offset="0.76" stop-color="#DBDBDB"/>
<stop offset="0.88" stop-color="#C9C9C9"/>
<stop offset="0.98" stop-color="#B2B2B2"/>
<stop offset="1" stop-color="#ACACAC"/>
</linearGradient>
<linearGradient id="paint2_linear_1010_1741" x1="18.7249" y1="125.46" x2="20.0905" y2="125.653" gradientUnits="userSpaceOnUse">
<stop stop-color="#666666"/>
<stop offset="0.06" stop-color="#727272"/>
<stop offset="0.33" stop-color="#A8A8A8"/>
<stop offset="0.57" stop-color="#D0D0D0"/>
<stop offset="0.76" stop-color="#E8E8E8"/>
<stop offset="0.87" stop-color="#F1F1F1"/>
<stop offset="0.95" stop-color="#F7F7F7"/>
<stop offset="1" stop-color="white"/>
</linearGradient>
<linearGradient id="paint3_linear_1010_1741" x1="113.75" y1="136.192" x2="115.32" y2="136.415" gradientUnits="userSpaceOnUse">
<stop stop-color="white"/>
<stop offset="0.05" stop-color="#F7F7F7"/>
<stop offset="0.13" stop-color="#F1F1F1"/>
<stop offset="0.24" stop-color="#E8E8E8"/>
<stop offset="0.43" stop-color="#D0D0D0"/>
<stop offset="0.67" stop-color="#A8A8A8"/>
<stop offset="0.94" stop-color="#727272"/>
<stop offset="1" stop-color="#666666"/>
</linearGradient>
<linearGradient id="paint4_linear_1010_1741" x1="47.7109" y1="264.153" x2="50.6571" y2="243.324" gradientUnits="userSpaceOnUse">
<stop stop-color="#F1F1F1"/>
<stop offset="0.12" stop-color="#E3E3E3"/>
<stop offset="0.34" stop-color="#BFBFBF"/>
<stop offset="0.63" stop-color="#848484"/>
<stop offset="1" stop-color="#333333"/>
</linearGradient>
<linearGradient id="paint5_linear_1010_1741" x1="82.949" y1="19.706" x2="87.5139" y2="-12.5664" gradientUnits="userSpaceOnUse">
<stop stop-color="#333333"/>
<stop offset="0.07" stop-color="#4C4C4C"/>
<stop offset="0.25" stop-color="#828282"/>
<stop offset="0.42" stop-color="#AFAFAF"/>
<stop offset="0.59" stop-color="#D2D2D2"/>
<stop offset="0.74" stop-color="#EBEBEB"/>
<stop offset="0.89" stop-color="#FAFAFA"/>
<stop offset="1" stop-color="white"/>
</linearGradient>
<linearGradient id="paint6_linear_1010_1741" x1="108.244" y1="135.242" x2="112.696" y2="135.871" gradientUnits="userSpaceOnUse">
<stop stop-color="#F0F0F0"/>
<stop offset="0.14" stop-color="#B7B7B7"/>
<stop offset="0.27" stop-color="#888888"/>
<stop offset="0.4" stop-color="#636363"/>
<stop offset="0.51" stop-color="#494949"/>
<stop offset="0.62" stop-color="#393939"/>
<stop offset="0.7" stop-color="#333333"/>
</linearGradient>
<linearGradient id="paint7_linear_1010_1741" x1="5.70874" y1="244.41" x2="92.7144" y2="256.711" gradientUnits="userSpaceOnUse">
<stop/>
<stop offset="0.1" stop-color="#141414"/>
<stop offset="0.26" stop-color="#2C2C2C"/>
<stop offset="0.4" stop-color="#3B3B3B"/>
<stop offset="0.52" stop-color="#404040"/>
<stop offset="0.63" stop-color="#393939"/>
<stop offset="0.79" stop-color="#242424"/>
<stop offset="0.99" stop-color="#020202"/>
<stop offset="1"/>
</linearGradient>
<linearGradient id="paint8_linear_1010_1741" x1="40.1613" y1="5.4176" x2="129.364" y2="18.029" gradientUnits="userSpaceOnUse">
<stop/>
<stop offset="0.1" stop-color="#141414"/>
<stop offset="0.26" stop-color="#2C2C2C"/>
<stop offset="0.4" stop-color="#3B3B3B"/>
<stop offset="0.52" stop-color="#404040"/>
<stop offset="0.63" stop-color="#393939"/>
<stop offset="0.79" stop-color="#242424"/>
<stop offset="0.99" stop-color="#020202"/>
<stop offset="1"/>
</linearGradient>
<linearGradient id="paint9_linear_1010_1741" x1="20.6547" y1="126.013" x2="22.877" y2="126.327" gradientUnits="userSpaceOnUse">
<stop stop-color="#404040"/>
<stop offset="0.64" stop-color="#1A1A1A"/>
<stop offset="1" stop-color="#0A0A0A"/>
</linearGradient>
<linearGradient id="paint10_linear_1010_1741" x1="108.244" y1="135.193" x2="112.711" y2="135.825" gradientUnits="userSpaceOnUse">
<stop stop-color="#0A0A0A"/>
<stop offset="0.36" stop-color="#1A1A1A"/>
<stop offset="1" stop-color="#404040"/>
</linearGradient>
<linearGradient id="paint11_linear_1010_1741" x1="76.25" y1="9.88009" x2="87.3833" y2="11.4541" gradientUnits="userSpaceOnUse">
<stop stop-color="#333333"/>
<stop offset="0.09" stop-color="#2B2B2B"/>
<stop offset="0.29" stop-color="#1E1E1E"/>
<stop offset="0.48" stop-color="#1A1A1A"/>
<stop offset="0.79" stop-color="#1C1C1C"/>
<stop offset="0.9" stop-color="#232323"/>
<stop offset="0.98" stop-color="#2E2E2E"/>
<stop offset="1" stop-color="#333333"/>
</linearGradient>
<linearGradient id="paint12_linear_1010_1741" x1="3.50781" y1="41.619" x2="138.754" y2="221.373" gradientUnits="userSpaceOnUse">
<stop stop-color="#F2F3F4"/>
<stop offset="0.36" stop-color="#EDEEEF"/>
<stop offset="0.78" stop-color="#DFE0E0"/>
<stop offset="1" stop-color="#D5D6D6"/>
</linearGradient>
<clipPath id="clip0_1010_1741">
<rect width="140" height="270.359" fill="white" transform="translate(0.166016 0.0766602)"/>
</clipPath>
</defs>
</svg>
