<svg width="33" height="32" viewBox="0 0 33 32" fill="none" xmlns="http://www.w3.org/2000/svg">
<path d="M16.75 0.193848C7.77623 0.193848 0.5 7.20764 0.5 15.8578C0.5 24.5079 7.77623 31.5217 16.75 31.5217C25.7238 31.5217 33 24.5079 33 15.8578C33 7.20764 25.7238 0.193848 16.75 0.193848ZM24.5594 12.0012C24.5703 12.1656 24.5703 12.3369 24.5703 12.5047C24.5703 17.6374 20.5151 23.5499 13.1046 23.5499C10.8195 23.5499 8.70117 22.91 6.91657 21.8086C7.24302 21.8436 7.55497 21.8576 7.88867 21.8576C9.77483 21.8576 11.5087 21.2422 12.8906 20.2003C11.1205 20.1653 9.63337 19.0465 9.12556 17.5081C9.74581 17.5955 10.3044 17.5955 10.9428 17.4381C10.0314 17.2596 9.21216 16.7825 8.62433 16.0878C8.03651 15.393 7.71633 14.5236 7.71819 13.627V13.5781C8.2514 13.8683 8.87891 14.0466 9.53544 14.0711C8.98353 13.7165 8.5309 13.2362 8.2177 12.6726C7.9045 12.1091 7.7404 11.4797 7.73996 10.8404C7.73996 10.1167 7.93583 9.45583 8.28767 8.88242C9.29931 10.0829 10.5617 11.0647 11.9928 11.764C13.4238 12.4634 14.9915 12.8647 16.594 12.9418C16.0246 10.302 18.0703 8.16566 20.5296 8.16566C21.6903 8.16566 22.7349 8.63418 23.4713 9.3894C24.3817 9.22507 25.2522 8.89641 26.0285 8.45586C25.7274 9.35444 25.0963 10.1132 24.2584 10.5922C25.0709 10.5083 25.8544 10.2915 26.5798 9.98729C26.0321 10.7635 25.3465 11.4523 24.5594 12.0012Z" fill="#3FA0BB"/>
</svg>
