<svg width="33" height="32" viewBox="0 0 33 32" fill="none" xmlns="http://www.w3.org/2000/svg">
<path d="M16.75 0.193848C7.77526 0.193848 0.5 7.20671 0.5 15.8578C0.5 24.5088 7.77526 31.5217 16.75 31.5217C25.7247 31.5217 33 24.5088 33 15.8578C33 7.20671 25.7247 0.193848 16.75 0.193848ZM12.7721 22.3501H9.48151V12.1425H12.7721V22.3501ZM11.1065 10.8894C10.0672 10.8894 9.39518 10.1796 9.39518 9.30176C9.39518 8.40598 10.0875 7.71742 11.1488 7.71742C12.2102 7.71742 12.8602 8.40598 12.8805 9.30176C12.8805 10.1796 12.2102 10.8894 11.1065 10.8894ZM24.7904 22.3501H21.4997V16.6932C21.4997 15.3764 21.0224 14.4823 19.8324 14.4823C18.9234 14.4823 18.3835 15.0876 18.1448 15.6701C18.0568 15.8773 18.0348 16.171 18.0348 16.4631V22.3485H14.7424V15.3976C14.7424 14.1233 14.7001 13.0578 14.6561 12.1408H17.5151L17.6658 13.5588H17.7318C18.1651 12.893 19.2264 11.9108 21.0021 11.9108C23.1671 11.9108 24.7904 13.3091 24.7904 16.3146V22.3501Z" fill="#3FA0BB"/>
</svg>
