<svg width="30" height="29" viewBox="0 0 30 29" fill="none" xmlns="http://www.w3.org/2000/svg">
<path d="M29.2387 8.9017C29.2224 7.72123 28.9928 6.55249 28.5601 5.44776C28.1849 4.51593 27.6119 3.66967 26.8776 2.96303C26.1433 2.25639 25.2639 1.70493 24.2956 1.34387C23.1624 0.934503 21.9652 0.713152 20.755 0.689241C19.1969 0.622219 18.7029 0.603516 14.7477 0.603516C10.7925 0.603516 10.2856 0.603516 8.73882 0.689241C7.5292 0.713328 6.33259 0.934676 5.19989 1.34387C4.23143 1.70468 3.3519 2.25605 2.61757 2.96272C1.88324 3.66939 1.31028 4.51579 0.935349 5.44776C0.509108 6.53746 0.279591 7.68925 0.256716 8.85338C0.187071 10.3544 0.166016 10.8297 0.166016 14.6359C0.166016 18.4421 0.166016 18.9284 0.256716 20.4185C0.281011 21.5843 0.509381 22.7346 0.935349 23.8272C1.31091 24.7589 1.8843 25.605 2.61887 26.3113C3.35345 27.0177 4.23306 27.5688 5.20151 27.9296C6.33111 28.3554 7.52793 28.5926 8.74044 28.6309C10.3002 28.698 10.7942 28.7182 14.7493 28.7182C18.7045 28.7182 19.2115 28.7182 20.7582 28.6309C21.9684 28.608 23.1656 28.3872 24.2988 27.9779C25.2669 27.6164 26.146 27.0648 26.8803 26.3582C27.6145 25.6516 28.1877 24.8056 28.5633 23.874C28.9893 22.7829 29.2177 21.6327 29.242 20.4652C29.3116 18.9658 29.3327 18.4904 29.3327 14.6827C29.3294 10.8765 29.3294 10.3933 29.2387 8.9017ZM14.738 21.8337C10.6014 21.8337 7.25036 18.6089 7.25036 14.6281C7.25036 10.6474 10.6014 7.42256 14.738 7.42256C16.7239 7.42256 18.6284 8.18171 20.0326 9.53302C21.4368 10.8843 22.2256 12.7171 22.2256 14.6281C22.2256 16.5392 21.4368 18.3719 20.0326 19.7233C18.6284 21.0746 16.7239 21.8337 14.738 21.8337ZM22.5237 8.83624C22.2943 8.83644 22.0672 8.79313 21.8553 8.70876C21.6433 8.62439 21.4508 8.50064 21.2886 8.34457C21.1264 8.18851 20.9978 8.0032 20.9102 7.79926C20.8225 7.59531 20.7775 7.37673 20.7777 7.15603C20.7777 6.93548 20.8228 6.7171 20.9105 6.51334C20.9982 6.30958 21.1268 6.12444 21.2888 5.96849C21.4509 5.81254 21.6433 5.68883 21.855 5.60444C22.0667 5.52004 22.2937 5.4766 22.5229 5.4766C22.752 5.4766 22.979 5.52004 23.1907 5.60444C23.4024 5.68883 23.5948 5.81254 23.7569 5.96849C23.9189 6.12444 24.0475 6.30958 24.1352 6.51334C24.2229 6.7171 24.268 6.93548 24.268 7.15603C24.268 8.08498 23.4874 8.83624 22.5237 8.83624Z" fill="#3FA0BB"/>
</svg>
